


[b][color=blue]---------------------------------------------------------------------
                      VA - In the Mood for Love
---------------------------------------------------------------------

Artist...............: Various Artists
Album................: In the Mood for Love
Genre................: Soundtrack
Source...............: CD
Year.................: 2000
Ripper...............: Exact Audio Copy 0.95b3 (secure mode) Flac 1.14a -8 & HL-DT-STDVDRAM GSA-4167B
Codec................: Free Lossless Audio Codec (FLAC)
Version..............: reference libFLAC 1.1.4 20070213
Quality..............: Lossless, (avg. compression: 40 %)
Channels.............: Stereo / 44100 HZ / 16 Bit
Tags.................: VorbisComment

Included.............: NFO, M3U, LOG, CUE


---------------------------------------------------------------------
                       Tracklisting
---------------------------------------------------------------------

   1. (00:02:29) Shigeru Umebayashi - Yumeji's Theme
   2. (00:00:10) Tony Leung Chiu Wai - Mo-Wan's Dialogue
   3. (00:02:12) Micheal Galasso - Angkor Wat Theme I
   4. (00:02:09) Micheal Galasso - ITMFL I
   5. (00:02:12) Nat King Cole - Aquellos Ojos Verdes
   6. (00:02:54) Deng Bai-Ying - Shuang Shuang Yan
   7. (00:01:03) Micheal Galasso - ITMFL II
   8. (00:03:18) Zhou Xuan - Radio Broadcasting / Hua Yang De Nian Hua
   9. (00:02:45) Nat King Cole - Quizás, Quizás, Quizás (Perhaps, Perhaps, Perhaps)
  10. (00:02:52) Rebecca Pan - Bengawan Solo
  11. (00:01:33) Micheal Galasso - ITMFL III
  12. (00:00:22) Tan Xin-Pei - Si Lang Tan Mu
  13. (00:01:14) Zhue Xue-Qing and Xie Hui-Jun - Zhuang Tai Bao Xi
  14. (00:05:45) Micheal Galasso - Blue
  15. (00:01:59) Zheng Jun-Mian and Li Hong - Hong Nian Hui Zhang Sheng
  16. (00:02:42) Maggie Cheung / Nat King Cole - Li-zhen's Dialogue / Te Quiero Dijiste (Magic Is The Moonlight)
  17. (00:02:06) Micheal Galasso - Angkor Wat Theme II
  18. (00:03:11) Chiu Wai-Ping - Yue Er Wan Wan Zhao Jiu Zhou
  19. (00:02:18) Micheal Galasso - Casanova / Flute
  20. (00:02:29) Shigeru Umebayashi / Maggie Cheung - Yumeji's Theme / Li-zhen's Dialogue
  21. (00:02:42) Micheal Galasso - Angkor Wat Theme Finale

Playing Time.........: 00:48:26
Total Size...........: 207.69 MB
[/color][/b]


[CODE]EAC extraction logfile from 1. January 2008, 19:11 for CD
Various / In the Mood for Love

Used drive  : HL-DT-STDVDRAM GSA-4167B   Adapter: 1  ID: 0
Read mode   : Secure with NO C2, accurate stream, disable cache
Read offset correction : 667
Overread into Lead-In and Lead-Out : No

Used output format : c:\Program Files\FLAC\flac.exe   (User Defined Encoder)
                     128 kBit/s
                     Additional command line options :  -8 -V -T "ARTIST=%a" -T "TITLE=%t" -T "ALBUM=%g" -T "DATE=%y" -T "TRACKNUMBER=%n" -T "GENRE=%m" -T "COMMENT=Exact Audio Copy 0.95b3 Flac 1.14a -8" %s

Other options      : 
    Fill up missing offset samples with silence : Yes
    Delete leading and trailing silent blocks : No
    Native Win32 interface for Win NT & 2000


Track  1
     Filename z:\media\160GB\Audio\DAE Files\01 - Shigeru Umebayashi - Yumeji's Theme.wav

     Pre-gap length  0:00:02.00

     Peak level 59.2 %
     Track quality 100.0 %
     Test CRC E0291FC4
     Copy CRC E0291FC4
     Copy OK

Track  2
     Filename z:\media\160GB\Audio\DAE Files\02 - Mo-Wan's Dialogue - Mo-Wan's Dialogue.wav

     Pre-gap length  0:00:02.00

     Peak level 35.7 %
     Track quality 100.0 %
     Test CRC CD945E96
     Copy CRC CD945E96
     Copy OK

Track  3
     Filename z:\media\160GB\Audio\DAE Files\03 - Angkor Wat Theme I - Angkor Wat Theme I.wav

     Pre-gap length  0:00:02.00

     Peak level 72.5 %
     Track quality 100.0 %
     Test CRC 7D3A5762
     Copy CRC 7D3A5762
     Copy OK

Track  4
     Filename z:\media\160GB\Audio\DAE Files\04 - ITMFL I - ITMFL I.wav

     Pre-gap length  0:00:02.00

     Peak level 50.4 %
     Track quality 100.0 %
     Test CRC 7E969763
     Copy CRC 7E969763
     Copy OK

Track  5
     Filename z:\media\160GB\Audio\DAE Files\05 - Nat King Cole - Aquellos Ojos Verdes.wav

     Pre-gap length  0:00:02.00

     Peak level 78.6 %
     Track quality 100.0 %
     Test CRC 5CEA5BF1
     Copy CRC 5CEA5BF1
     Copy OK

Track  6
     Filename z:\media\160GB\Audio\DAE Files\06 - Deng Bai-Ying - Shuang Shuang Yan.wav

     Pre-gap length  0:00:02.00

     Peak level 82.2 %
     Track quality 100.0 %
     Test CRC 8E45890B
     Copy CRC 8E45890B
     Copy OK

Track  7
     Filename z:\media\160GB\Audio\DAE Files\07 - ITMFL II - ITMFL II.wav

     Pre-gap length  0:00:02.00

     Peak level 37.6 %
     Track quality 100.0 %
     Test CRC 895624B2
     Copy CRC 895624B2
     Copy OK

Track  8
     Filename z:\media\160GB\Audio\DAE Files\08 - Zhou Xuan - Radio Broadcasting-Hua Yang De Nian Hua.wav

     Pre-gap length  0:00:02.00

     Peak level 74.5 %
     Track quality 100.0 %
     Test CRC CBCA01E3
     Copy CRC CBCA01E3
     Copy OK

Track  9
     Filename z:\media\160GB\Audio\DAE Files\09 - Nat King Cole - Quizas, Quizas, Quizas.wav

     Pre-gap length  0:00:02.00

     Peak level 69.5 %
     Track quality 100.0 %
     Test CRC 932FC73D
     Copy CRC 932FC73D
     Copy OK

Track 10
     Filename z:\media\160GB\Audio\DAE Files\10 - Rebecca Pan - Bengawan Solo.wav

     Pre-gap length  0:00:02.00

     Peak level 55.7 %
     Track quality 100.0 %
     Test CRC 70DFF5DF
     Copy CRC 70DFF5DF
     Copy OK

Track 11
     Filename z:\media\160GB\Audio\DAE Files\11 - ITMFL III - ITMFL III.wav

     Pre-gap length  0:00:02.00

     Peak level 51.7 %
     Track quality 100.0 %
     Test CRC 73C04900
     Copy CRC 73C04900
     Copy OK

Track 12
     Filename z:\media\160GB\Audio\DAE Files\12 - Tan Xin-Pei - Si Lang Tan Mu.wav

     Pre-gap length  0:00:02.00

     Peak level 61.0 %
     Track quality 99.5 %
     Test CRC 31CCCE7D
     Copy CRC 31CCCE7D
     Copy OK

Track 13
     Filename z:\media\160GB\Audio\DAE Files\13 - Zhue Xue-Qing and Xie Hui-Jun - Zhuang Tai Bao Xi.wav

     Pre-gap length  0:00:02.00

     Peak level 67.3 %
     Track quality 100.0 %
     Test CRC ECE5F3F0
     Copy CRC ECE5F3F0
     Copy OK

Track 14
     Filename z:\media\160GB\Audio\DAE Files\14 - Blue - Blue.wav

     Pre-gap length  0:00:02.00

     Peak level 100.0 %
     Track quality 100.0 %
     Test CRC B7413021
     Copy CRC B7413021
     Copy OK

Track 15
     Filename z:\media\160GB\Audio\DAE Files\15 - Zheng Jun-Mian and Li Hong - Hong Nian Hui Zhang Sheng.wav

     Pre-gap length  0:00:02.00

     Peak level 34.1 %
     Track quality 100.0 %
     Test CRC 1187FF00
     Copy CRC 1187FF00
     Copy OK

Track 16
     Filename z:\media\160GB\Audio\DAE Files\16 - Li-zhen's Dialogue - Nat King Cole - Te Quiero Dijiste.wav

     Pre-gap length  0:00:02.00

     Peak level 79.5 %
     Track quality 99.9 %
     Test CRC 5000FD4E
     Copy CRC 5000FD4E
     Copy OK

Track 17
     Filename z:\media\160GB\Audio\DAE Files\17 - Angkor Wat Theme II - Angkor Wat Theme II.wav

     Pre-gap length  0:00:02.00

     Peak level 67.6 %
     Track quality 100.0 %
     Test CRC CD98FBDD
     Copy CRC CD98FBDD
     Copy OK

Track 18
     Filename z:\media\160GB\Audio\DAE Files\18 - Chiu Wai-Ping - Yue Er Wan Wan Zhao Jiu Zhou.wav

     Pre-gap length  0:00:02.00

     Peak level 45.5 %
     Track quality 100.0 %
     Test CRC 6A4964B1
     Copy CRC 6A4964B1
     Copy OK

Track 19
     Filename z:\media\160GB\Audio\DAE Files\19 - Casanova - Flute - Casanova - Flute.wav

     Pre-gap length  0:00:02.00

     Peak level 100.0 %
     Track quality 100.0 %
     Test CRC 7592341D
     Copy CRC 7592341D
     Copy OK

Track 20
     Filename z:\media\160GB\Audio\DAE Files\20 - Shigeru Umebayashi - Yumeji's Theme-Li-zhen's Dialogue.wav

     Pre-gap length  0:00:02.00

     Peak level 59.2 %
     Track quality 100.0 %
     Test CRC 1D6E4775
     Copy CRC 1D6E4775
     Copy OK

Track 21
     Filename z:\media\160GB\Audio\DAE Files\21 - Angkor Wat Theme Finale - Angkor Wat Theme Finale.wav

     Pre-gap length  0:00:02.00

     Peak level 98.4 %
     Track quality 100.0 %
     Test CRC 92D83E1B
     Copy CRC 92D83E1B
     Copy OK

No errors occured


End of status report
[/CODE]


[b][i][color=blue]Thank to FlacMonkey for the original release
movie it's here::

15 kb/s 24/7[/color][/i][/b]